PathFileType	4	(X/Y/Z)	./resultDataOpenSim/trcMotMarkerGrf/sub09/qtm-13-01.trc
DataRate	CameraRate	NumFrames	NumMarkers	Units	OrigDataRate	OrigDataStartFrame	OrigNumFrames
250.000000	250.000000	9	24	m	250.000000	68	536
Frame#	Time	L.Toe.Tip			R.Toe.Tip			L.Ankle.Lat			R.Ankle.Lat			L.Ankle.Med			R.Ankle.Med			L.Heel			R.Heel			L.Knee.Lat			R.Knee.Lat			L.Knee.Med			R.Knee.Med			L.Thigh.Upper			R.Thigh.Upper			L.ASIS			R.ASIS			V.Sacral			L.Acromium			R.Acromium			C7			L.Elbow			R.Elbow			L.Wrist.Lat			R.Wrist.Lat
		X1	Y1	Z1	X2	Y2	Z2	X3	Y3	Z3	X4	Y4	Z4	X5	Y5	Z5	X6	Y6	Z6	X7	Y7	Z7	X8	Y8	Z8	X9	Y9	Z9	X10	Y10	Z10	X11	Y11	Z11	X12	Y12	Z12	X13	Y13	Z13	X14	Y14	Z14	X15	Y15	Z15	X16	Y16	Z16	X17	Y17	Z17	X18	Y18	Z18	X19	Y19	Z19	X20	Y20	Z20	X21	Y21	Z21	X22	Y22	Z22	X23	Y23	Z23	X24	Y24	Z24

68	0.268	-1.3888495	0.084475944	-0.053329494	-0.6681985	0.039886012	0.055245624	-1.4115692	0.239785	-0.11025043	-0.81649048	0.053980675	0.089824658	-1.386549	0.22539353	-0.016284967	-0.80440731	0.09583389	0.00020596994	-1.4760153	0.28252728	-0.05973632	-0.88288724	0.030975876	0.038891084	-1.0442907	0.43341743	-0.13299535	-0.77037126	0.50410585	0.16144306	-1.0283581	0.41843016	-0.009051487	-0.78666143	0.49570241	0.036197379	-1.0004642	0.84092738	-0.14074665	-0.9613155	0.86010483	0.23104206	-0.90142326	0.92434086	-0.091218477	-0.88809347	0.94767961	0.15140432	-1.0636186	0.99406934	0.036571814	-0.89731314	1.3926612	-0.12339414	-0.93282865	1.4001909	0.20421677	-0.97939355	1.4451644	0.036819501	-1.0410775	1.0582717	-0.19675238	-1.0895252	1.0739632	0.27001719	-0.89735268	0.83268329	-0.21469225	-0.98385294	0.82200531	0.30202586
69	0.272	-1.3769618	0.086663553	-0.055471397	-0.66828003	0.039886028	0.055287334	-1.4002576	0.24220643	-0.11039922	-0.81674203	0.053964121	0.089905346	-1.3753902	0.22713335	-0.016458913	-0.8043981	0.095903636	0.00036137573	-1.4648729	0.28470474	-0.05975572	-0.88298037	0.03098365	0.038895686	-1.0320581	0.43368654	-0.13273038	-0.76772718	0.50379562	0.16192571	-1.0177178	0.41870059	-0.0083833113	-0.7840816	0.49548378	0.036427984	-0.99433999	0.84163466	-0.14054466	-0.95547795	0.86165676	0.23141988	-0.89595268	0.92552716	-0.090881582	-0.88263568	0.94903882	0.15159119	-1.0580877	0.99524313	0.036907902	-0.89200599	1.3938234	-0.12315359	-0.92696657	1.4013412	0.20450556	-0.9737574	1.4463014	0.037253306	-1.0359374	1.0594841	-0.19624283	-1.0831469	1.0749257	0.27121878	-0.89271635	0.83365524	-0.21470262	-0.97694121	0.8233411	0.30225629
70	0.276	-1.3646986	0.088614789	-0.057573554	-0.66837349	0.039883474	0.055340684	-1.3887391	0.24437965	-0.1105147	-0.81700865	0.053940695	0.089979322	-1.3641009	0.22865007	-0.016586659	-0.80439584	0.095986614	0.00053517461	-1.4535869	0.28641517	-0.05967987	-0.88307553	0.031005376	0.038883908	-1.0198521	0.43414307	-0.13253451	-0.76515457	0.50350618	0.16241171	-1.0083911	0.41901956	-0.0075849367	-0.78161809	0.49527301	0.036716614	-0.98829894	0.84238873	-0.14030523	-0.94968556	0.86323851	0.23181569	-0.89055243	0.92677157	-0.090521946	-0.87722738	0.95041985	0.15181309	-1.0525552	0.99645567	0.037327215	-0.88690013	1.395069	-0.12294668	-0.9211894	1.4025488	0.20481542	-0.96820644	1.4474943	0.03761568	-1.0308505	1.0607341	-0.19572086	-1.0766646	1.0759246	0.27257407	-0.88809948	0.83473504	-0.21468095	-0.97005348	0.82474097	0.30249787
71	0.28	-1.3521099	0.090337335	-0.059667643	-0.66846507	0.039877535	0.055412037	-1.3770196	0.24628471	-0.11058746	-0.81724892	0.053913045	0.090044482	-1.3527582	0.22995266	-0.016602784	-0.80437543	0.096079435	0.00072099835	-1.4420912	0.2877116	-0.059636165	-0.88316257	0.031047297	0.03885366	-1.0077733	0.43475056	-0.13227144	-0.76264118	0.50321827	0.16287328	-0.99954673	0.41941445	-0.0067207628	-0.77924436	0.49509597	0.037092964	-0.98230133	0.84320641	-0.1400639	-0.94415878	0.86483134	0.23220855	-0.88527569	0.92807185	-0.090142855	-0.87186627	0.95180868	0.15207271	-1.0470439	0.99769394	0.037805057	-0.88192847	1.3963889	-0.12276683	-0.91548801	1.4038073	0.20513806	-0.96270772	1.4487474	0.037931134	-1.0258127	1.0620189	-0.19518496	-1.0702993	1.0770058	0.2738772	-0.88356443	0.8358782	-0.21462901	-0.9631844	0.82620238	0.30275023
72	0.284	-1.3392152	0.0918582	-0.061767528	-0.66854335	0.039870153	0.055509221	-1.365104	0.24792046	-0.11064078	-0.81743827	0.053890302	0.090107973	-1.3415754	0.23101823	-0.016415984	-0.80432496	0.096176845	0.00091547488	-1.4304684	0.28869486	-0.059622299	-0.88322849	0.031107096	0.038807474	-0.99582654	0.43549223	-0.1318558	-0.76019987	0.50292193	0.16329944	-0.99006178	0.41997663	-0.0059164731	-0.77693853	0.49495217	0.037542953	-0.97634159	0.8441108	-0.13984367	-0.93905355	0.8664231	0.23257121	-0.88008487	0.92943021	-0.089743622	-0.86655953	0.95319396	0.15235668	-1.0415849	0.99894813	0.038290668	-0.87700665	1.3977831	-0.1226063	-0.90982329	1.4051094	0.20545481	-0.95723076	1.4500568	0.038226502	-1.0208256	1.0633503	-0.19463327	-1.0641885	1.0781775	0.27495611	-0.87914568	0.83703658	-0.21454216	-0.95634039	0.82771925	0.30301403
73	0.288	-1.3259998	0.093208675	-0.063838735	-0.66860179	0.039863388	0.055635251	-1.3530175	0.24929622	-0.11070488	-0.81758424	0.053884677	0.090185822	-1.3307497	0.23180312	-0.01597251	-0.80425107	0.096273849	0.0011160718	-1.4188381	0.28943281	-0.059555258	-0.8832627	0.031177218	0.03875311	-0.98395937	0.4363671	-0.13128771	-0.75785431	0.5026187	0.16369733	-0.97958094	0.42076294	-0.0052201987	-0.7746681	0.49482957	0.038003203	-0.97042902	0.84510766	-0.13964214	-0.93431307	0.86799167	0.23288927	-0.87490893	0.93084901	-0.089322202	-0.86131523	0.95456576	0.15265336	-1.0361893	1.0002357	0.038743203	-0.87210835	1.399262	-0.12246656	-0.90416575	1.4064482	0.205755	-0.95177156	1.4514022	0.038512865	-1.0158921	1.0647449	-0.19406765	-1.0582899	1.0794122	0.2758119	-0.87477056	0.83819758	-0.21439953	-0.94953076	0.82928188	0.30328653
74	0.292	-1.3124435	0.094410023	-0.06582913	-0.66864146	0.03985805	0.055785515	-1.3407796	0.2504158	-0.11077755	-0.8177177	0.053904168	0.090292752	-1.3200702	0.23229956	-0.015387194	-0.80417442	0.096367558	0.0013188854	-1.4071976	0.28991322	-0.059397664	-0.88326662	0.031253347	0.038699848	-0.97211884	0.43736743	-0.13060705	-0.75554764	0.50228754	0.16405711	-0.96840339	0.42173703	-0.0045417489	-0.7724065	0.49472367	0.038406565	-0.96455463	0.84618862	-0.13943591	-0.9297361	0.86951029	0.233174	-0.86971783	0.93232639	-0.088880928	-0.85613212	0.95591913	0.15296097	-1.0308551	1.001582	0.039140957	-0.86723059	1.4008127	-0.12234066	-0.8985208	1.4078195	0.20604007	-0.94634422	1.4527566	0.038787739	-1.0110092	1.0662064	-0.19349299	-1.0524811	1.0806825	0.27655588	-0.87033946	0.83937039	-0.21419078	-0.94275314	0.83088336	0.30355931
75	0.296	-1.2985463	0.095464527	-0.067712663	-0.66867213	0.039854047	0.055950776	-1.3283721	0.25128031	-0.11082408	-0.81783999	0.0539369	0.090411726	-1.3085977	0.23258788	-0.015033042	-0.80411423	0.096456912	0.0015194939	-1.3954823	0.29007858	-0.05914292	-0.88325364	0.031335672	0.03865333	-0.96027272	0.43848229	-0.12986021	-0.75321733	0.50191195	0.16436572	-0.95684762	0.42282664	-0.0037784125	-0.77016798	0.49463602	0.038751294	-0.95867674	0.8473511	-0.13920809	-0.92518712	0.87096618	0.23344506	-0.8645148	0.93386167	-0.088425153	-0.85099596	0.95725314	0.15328457	-1.0255777	1.0029802	0.039480786	-0.86236549	1.4023936	-0.12221155	-0.89290623	1.4092268	0.20631636	-0.94095803	1.454126	0.039047301	-1.0061701	1.0677213	-0.1929142	-1.0466755	1.0819768	0.27727949	-0.86589333	0.84056971	-0.21396488	-0.93599571	0.83252018	0.30382431
76	0.3	-1.2843316	0.096359103	-0.069489907	-0.66870617	0.039850926	0.05612202	-1.3157811	0.25189619	-0.11082507	-0.81789288	0.053949232	0.090485727	-1.2953339	0.23278353	-0.015295103	-0.80407501	0.096542449	0.0017134741	-1.3836708	0.28989392	-0.058830695	-0.88323819	0.031423356	0.03861668	-0.94842442	0.43970877	-0.12907018	-0.75095354	0.50153433	0.16465862	-0.9450267	0.42397152	-0.0029176558	-0.76802658	0.49455426	0.039109986	-0.95273657	0.84860303	-0.13896206	-0.92064387	0.87236131	0.23371158	-0.85930823	0.93545833	-0.087960828	-0.84588667	0.95856883	0.1536297	-1.020344	1.0044159	0.03977232	-0.8575223	1.4039736	-0.1220717	-0.88732018	1.4106747	0.20658833	-0.93561274	1.4555426	0.039288942	-1.0013722	1.0692721	-0.19233443	-1.0408484	1.0832947	0.2780131	-0.86158026	0.84182325	-0.21381103	-0.92925153	0.83418711	0.30408219
